<mxfile host="Electron" agent="Mozilla/5.0 (Macintosh; Intel Mac OS X 10_15_7) AppleWebKit/537.36 (KHTML, like Gecko) draw.io/24.7.17 Chrome/128.0.6613.36 Electron/32.0.1 Safari/537.36" version="24.7.17">
  <diagram name="Página-1" id="ITqUPIZxmLZg4kC9uVb1">
    <mxGraphModel dx="2025" dy="1398" grid="1" gridSize="10" guides="1" tooltips="1" connect="1" arrows="1" fold="1" page="1" pageScale="1" pageWidth="827" pageHeight="1169" math="0" shadow="0">
      <root>
        <mxCell id="0" />
        <mxCell id="1" parent="0" />
        <mxCell id="ezG9GX9ZQJPP13QtV_8G-1" value="&lt;pre style=&quot;--tw-border-spacing-x: 0; --tw-border-spacing-y: 0; --tw-translate-x: 0; --tw-translate-y: 0; --tw-rotate: 0; --tw-skew-x: 0; --tw-skew-y: 0; --tw-scale-x: 1; --tw-scale-y: 1; --tw-pan-x: ; --tw-pan-y: ; --tw-pinch-zoom: ; --tw-scroll-snap-strictness: proximity; --tw-gradient-from-position: ; --tw-gradient-via-position: ; --tw-gradient-to-position: ; --tw-ordinal: ; --tw-slashed-zero: ; --tw-numeric-figure: ; --tw-numeric-spacing: ; --tw-numeric-fraction: ; --tw-ring-inset: ; --tw-ring-offset-width: 0px; --tw-ring-offset-color: #fff; --tw-ring-color: rgb(59 130 246 / .5); --tw-ring-offset-shadow: 0 0 #0000; --tw-ring-shadow: 0 0 #0000; --tw-shadow: 0 0 #0000; --tw-shadow-colored: 0 0 #0000; --tw-blur: ; --tw-brightness: ; --tw-contrast: ; --tw-grayscale: ; --tw-hue-rotate: ; --tw-invert: ; --tw-saturate: ; --tw-sepia: ; --tw-drop-shadow: ; --tw-backdrop-blur: ; --tw-backdrop-brightness: ; --tw-backdrop-contrast: ; --tw-backdrop-grayscale: ; --tw-backdrop-hue-rotate: ; --tw-backdrop-invert: ; --tw-backdrop-opacity: ; --tw-backdrop-saturate: ; --tw-backdrop-sepia: ; --tw-contain-size: ; --tw-contain-layout: ; --tw-contain-paint: ; --tw-contain-style: ; box-sizing: border-box; border-width: 0px; border-style: solid; border-color: var(--chakra-colors-chakra-border-color); overflow-wrap: break-word; font-family: ui-monospace, SFMono-Regular, Menlo, Monaco, Consolas, &amp;quot;Liberation Mono&amp;quot;, &amp;quot;Courier New&amp;quot;, monospace; font-size: medium; margin: 0px 0px 1rem; border-radius: 0.5rem; position: relative; color: rgb(0, 0, 0); font-style: normal; font-variant-ligatures: normal; font-variant-caps: normal; letter-spacing: normal; orphans: 2; text-indent: 0px; text-transform: none; widows: 2; word-spacing: 0px; -webkit-text-stroke-width: 0px; background-color: rgb(255, 255, 255); text-decoration-thickness: initial; text-decoration-style: initial; text-decoration-color: initial;&quot; class=&quot;m-0 mb-4 rounded-lg relative&quot;&gt;&lt;br&gt;&lt;/pre&gt;" style="text;whiteSpace=wrap;html=1;align=center;verticalAlign=middle;fontStyle=1" vertex="1" parent="1">
          <mxGeometry x="280" y="900" width="260" height="80" as="geometry" />
        </mxCell>
        <mxCell id="ezG9GX9ZQJPP13QtV_8G-2" value="Solução&amp;nbsp; arquitetural" style="swimlane;horizontal=0;whiteSpace=wrap;html=1;" vertex="1" parent="1">
          <mxGeometry x="20" width="1930" height="790" as="geometry" />
        </mxCell>
        <mxCell id="ezG9GX9ZQJPP13QtV_8G-3" style="edgeStyle=orthogonalEdgeStyle;rounded=0;orthogonalLoop=1;jettySize=auto;html=1;dashed=1;exitX=0.908;exitY=0.374;exitDx=0;exitDy=0;exitPerimeter=0;entryX=0.5;entryY=0.5;entryDx=0;entryDy=0;entryPerimeter=0;" edge="1" parent="ezG9GX9ZQJPP13QtV_8G-2">
          <mxGeometry relative="1" as="geometry">
            <mxPoint x="796.0799999999999" y="720.5300000000002" as="sourcePoint" />
            <mxPoint x="1045" y="720" as="targetPoint" />
          </mxGeometry>
        </mxCell>
        <mxCell id="ezG9GX9ZQJPP13QtV_8G-4" value="Envio de mensagens sobre saúde, disponibilidade ou fatores da aplicação via Teams ou plataformas similares." style="ellipse;shape=cloud;whiteSpace=wrap;html=1;rounded=0;fontStyle=1;" vertex="1" parent="ezG9GX9ZQJPP13QtV_8G-2">
          <mxGeometry x="550" y="685" width="260" height="95" as="geometry" />
        </mxCell>
        <mxCell id="ezG9GX9ZQJPP13QtV_8G-5" value="&amp;nbsp; Autenticação&amp;nbsp; &amp;nbsp;" style="swimlane;whiteSpace=wrap;html=1;" vertex="1" parent="ezG9GX9ZQJPP13QtV_8G-2">
          <mxGeometry x="70" y="50" width="390" height="400" as="geometry" />
        </mxCell>
        <mxCell id="ezG9GX9ZQJPP13QtV_8G-6" value="&lt;div style=&quot;font-size: 12px;&quot;&gt;&lt;span style=&quot;background-color: rgb(255, 255, 255); color: rgb(26, 32, 44); font-family: Inter, sans-serif; font-size: 12px; white-space: pre;&quot;&gt;API de   &lt;/span&gt;&lt;span style=&quot;background-color: rgb(255, 255, 255); color: rgb(26, 32, 44); font-family: Inter, sans-serif; font-size: 12px; white-space: pre;&quot;&gt;Autenticação&lt;/span&gt;&lt;/div&gt;&lt;div style=&quot;font-size: 12px;&quot;&gt;&lt;span style=&quot;background-color: rgb(255, 255, 255); color: rgb(26, 32, 44); font-family: Inter, sans-serif; font-size: 12px; white-space: pre;&quot;&gt;   (Gera Token) &lt;/span&gt;&lt;/div&gt;" style="rounded=0;whiteSpace=wrap;html=1;align=center;verticalAlign=middle;fontStyle=1;fontSize=12;" vertex="1" parent="ezG9GX9ZQJPP13QtV_8G-5">
          <mxGeometry x="20" y="70" width="170" height="80" as="geometry" />
        </mxCell>
        <mxCell id="ezG9GX9ZQJPP13QtV_8G-7" value="&lt;div style=&quot;font-size: 12px;&quot;&gt;&lt;span style=&quot;color: rgb(26, 32, 44); font-family: Inter, sans-serif; font-size: 12px; white-space: pre; background-color: rgb(255, 255, 255);&quot;&gt;Gateway API   &lt;/span&gt;&lt;/div&gt;&lt;div style=&quot;font-size: 12px;&quot;&gt;&lt;span style=&quot;color: rgb(26, 32, 44); font-family: Inter, sans-serif; font-size: 12px; white-space: pre; background-color: rgb(255, 255, 255);&quot;&gt;     &lt;/span&gt;&lt;/div&gt;" style="rounded=0;whiteSpace=wrap;html=1;align=center;verticalAlign=middle;fontStyle=1;fontSize=12;" vertex="1" parent="ezG9GX9ZQJPP13QtV_8G-5">
          <mxGeometry x="20" y="290" width="170" height="80" as="geometry" />
        </mxCell>
        <mxCell id="ezG9GX9ZQJPP13QtV_8G-8" style="edgeStyle=orthogonalEdgeStyle;rounded=0;orthogonalLoop=1;jettySize=auto;html=1;entryX=0.5;entryY=0;entryDx=0;entryDy=0;align=center;verticalAlign=middle;fontStyle=1" edge="1" parent="ezG9GX9ZQJPP13QtV_8G-5" source="ezG9GX9ZQJPP13QtV_8G-6" target="ezG9GX9ZQJPP13QtV_8G-7">
          <mxGeometry relative="1" as="geometry" />
        </mxCell>
        <mxCell id="ezG9GX9ZQJPP13QtV_8G-9" value="&lt;span style=&quot;color: rgb(26, 32, 44); font-family: Inter, sans-serif; font-size: medium; white-space-collapse: preserve;&quot;&gt;Token&lt;/span&gt;" style="edgeLabel;html=1;align=center;verticalAlign=middle;resizable=0;points=[];fontStyle=1" vertex="1" connectable="0" parent="ezG9GX9ZQJPP13QtV_8G-8">
          <mxGeometry relative="1" as="geometry">
            <mxPoint as="offset" />
          </mxGeometry>
        </mxCell>
        <mxCell id="ezG9GX9ZQJPP13QtV_8G-10" value="&lt;span style=&quot;color: rgb(26, 32, 44); font-family: Inter, sans-serif; font-size: medium; white-space-collapse: preserve;&quot;&gt;(Valida Token)&lt;/span&gt;" style="edgeStyle=orthogonalEdgeStyle;rounded=0;orthogonalLoop=1;jettySize=auto;html=1;align=center;verticalAlign=middle;fontStyle=1;exitX=1;exitY=0.5;exitDx=0;exitDy=0;" edge="1" parent="ezG9GX9ZQJPP13QtV_8G-5" source="ezG9GX9ZQJPP13QtV_8G-7">
          <mxGeometry relative="1" as="geometry">
            <mxPoint x="190" y="100" as="targetPoint" />
            <Array as="points">
              <mxPoint x="240" y="330" />
              <mxPoint x="240" y="100" />
            </Array>
            <mxPoint as="offset" />
          </mxGeometry>
        </mxCell>
        <mxCell id="ezG9GX9ZQJPP13QtV_8G-11" style="edgeStyle=orthogonalEdgeStyle;rounded=0;orthogonalLoop=1;jettySize=auto;html=1;entryX=0.344;entryY=0.038;entryDx=0;entryDy=0;entryPerimeter=0;" edge="1" parent="ezG9GX9ZQJPP13QtV_8G-2" target="ezG9GX9ZQJPP13QtV_8G-19">
          <mxGeometry relative="1" as="geometry">
            <mxPoint x="685" y="400" as="targetPoint" />
            <mxPoint x="685" y="305" as="sourcePoint" />
            <Array as="points">
              <mxPoint x="685" y="350" />
              <mxPoint x="686" y="403" />
            </Array>
          </mxGeometry>
        </mxCell>
        <mxCell id="ezG9GX9ZQJPP13QtV_8G-12" style="edgeStyle=orthogonalEdgeStyle;rounded=0;orthogonalLoop=1;jettySize=auto;html=1;" edge="1" parent="ezG9GX9ZQJPP13QtV_8G-2" source="ezG9GX9ZQJPP13QtV_8G-13" target="ezG9GX9ZQJPP13QtV_8G-15">
          <mxGeometry relative="1" as="geometry" />
        </mxCell>
        <mxCell id="ezG9GX9ZQJPP13QtV_8G-13" value="&lt;div style=&quot;font-size: 12px;&quot;&gt;&lt;span style=&quot;color: rgb(26, 32, 44); font-family: Inter, sans-serif; font-size: 12px; white-space: pre; background-color: rgb(255, 255, 255);&quot;&gt;Api -  &lt;/span&gt;&lt;span style=&quot;color: rgb(26, 32, 44); font-family: Inter, sans-serif; font-size: 12px; white-space: pre; background-color: rgb(255, 255, 255);&quot;&gt; Lançamentos&lt;br style=&quot;font-size: 12px;&quot;&gt;&lt;br style=&quot;font-size: 12px;&quot;&gt;&lt;/span&gt;&lt;pre class=&quot;m-0 mb-4 rounded-lg relative&quot; style=&quot;--tw-border-spacing-x: 0; --tw-border-spacing-y: 0; --tw-translate-x: 0; --tw-translate-y: 0; --tw-rotate: 0; --tw-skew-x: 0; --tw-skew-y: 0; --tw-scale-x: 1; --tw-scale-y: 1; --tw-pan-x: ; --tw-pan-y: ; --tw-pinch-zoom: ; --tw-scroll-snap-strictness: proximity; --tw-gradient-from-position: ; --tw-gradient-via-position: ; --tw-gradient-to-position: ; --tw-ordinal: ; --tw-slashed-zero: ; --tw-numeric-figure: ; --tw-numeric-spacing: ; --tw-numeric-fraction: ; --tw-ring-inset: ; --tw-ring-offset-width: 0px; --tw-ring-offset-color: #fff; --tw-ring-color: rgb(59 130 246 / .5); --tw-ring-offset-shadow: 0 0 #0000; --tw-ring-shadow: 0 0 #0000; --tw-shadow: 0 0 #0000; --tw-shadow-colored: 0 0 #0000; --tw-blur: ; --tw-brightness: ; --tw-contrast: ; --tw-grayscale: ; --tw-hue-rotate: ; --tw-invert: ; --tw-saturate: ; --tw-sepia: ; --tw-drop-shadow: ; --tw-backdrop-blur: ; --tw-backdrop-brightness: ; --tw-backdrop-contrast: ; --tw-backdrop-grayscale: ; --tw-backdrop-hue-rotate: ; --tw-backdrop-invert: ; --tw-backdrop-opacity: ; --tw-backdrop-saturate: ; --tw-backdrop-sepia: ; --tw-contain-size: ; --tw-contain-layout: ; --tw-contain-paint: ; --tw-contain-style: ; box-sizing: border-box; border-width: 0px; border-style: solid; border-color: var(--chakra-colors-chakra-border-color); overflow-wrap: break-word; font-family: ui-monospace, SFMono-Regular, Menlo, Monaco, Consolas, &amp;quot;Liberation Mono&amp;quot;, &amp;quot;Courier New&amp;quot;, monospace; font-size: 12px; margin-top: 0px; margin-bottom: 1rem; border-radius: 0.5rem; position: relative; background-color: rgb(255, 255, 255);&quot;&gt;&lt;code class=&quot;whitespace-pre-wrap&quot; style=&quot;--tw-border-spacing-x: 0; --tw-border-spacing-y: 0; --tw-translate-x: 0; --tw-translate-y: 0; --tw-rotate: 0; --tw-skew-x: 0; --tw-skew-y: 0; --tw-scale-x: 1; --tw-scale-y: 1; --tw-pan-x: ; --tw-pan-y: ; --tw-pinch-zoom: ; --tw-scroll-snap-strictness: proximity; --tw-gradient-from-position: ; --tw-gradient-via-position: ; --tw-gradient-to-position: ; --tw-ordinal: ; --tw-slashed-zero: ; --tw-numeric-figure: ; --tw-numeric-spacing: ; --tw-numeric-fraction: ; --tw-ring-inset: ; --tw-ring-offset-width: 0px; --tw-ring-offset-color: #fff; --tw-ring-color: rgb(59 130 246 / .5); --tw-ring-offset-shadow: 0 0 #0000; --tw-ring-shadow: 0 0 #0000; --tw-shadow: 0 0 #0000; --tw-shadow-colored: 0 0 #0000; --tw-blur: ; --tw-brightness: ; --tw-contrast: ; --tw-grayscale: ; --tw-hue-rotate: ; --tw-invert: ; --tw-saturate: ; --tw-sepia: ; --tw-drop-shadow: ; --tw-backdrop-blur: ; --tw-backdrop-brightness: ; --tw-backdrop-contrast: ; --tw-backdrop-grayscale: ; --tw-backdrop-hue-rotate: ; --tw-backdrop-invert: ; --tw-backdrop-opacity: ; --tw-backdrop-saturate: ; --tw-backdrop-sepia: ; --tw-contain-size: ; --tw-contain-layout: ; --tw-contain-paint: ; --tw-contain-style: ; box-sizing: border-box; border-width: 0px; border-style: solid; border-color: var(--chakra-colors-chakra-border-color); overflow-wrap: break-word; font-family: ui-monospace, SFMono-Regular, Menlo, Monaco, Consolas, &amp;quot;Liberation Mono&amp;quot;, &amp;quot;Courier New&amp;quot;, monospace; font-size: 12px; text-wrap-mode: wrap;&quot;&gt;(Producer)         (Publica eventos)&lt;/code&gt;&lt;/pre&gt;&lt;span style=&quot;color: rgb(26, 32, 44); font-family: Inter, sans-serif; font-size: 12px; white-space: pre; background-color: rgb(255, 255, 255);&quot;&gt;&lt;/span&gt;&lt;/div&gt;" style="rounded=0;whiteSpace=wrap;html=1;align=center;verticalAlign=middle;fontStyle=1;fontSize=12;" vertex="1" parent="ezG9GX9ZQJPP13QtV_8G-2">
          <mxGeometry x="565" y="210" width="190" height="95" as="geometry" />
        </mxCell>
        <mxCell id="ezG9GX9ZQJPP13QtV_8G-14" style="edgeStyle=orthogonalEdgeStyle;rounded=0;orthogonalLoop=1;jettySize=auto;html=1;" edge="1" parent="ezG9GX9ZQJPP13QtV_8G-2" source="ezG9GX9ZQJPP13QtV_8G-15">
          <mxGeometry relative="1" as="geometry">
            <mxPoint x="1530" y="320" as="targetPoint" />
          </mxGeometry>
        </mxCell>
        <mxCell id="ezG9GX9ZQJPP13QtV_8G-15" value="&lt;pre style=&quot;font-weight: 700; --tw-border-spacing-x: 0; --tw-border-spacing-y: 0; --tw-translate-x: 0; --tw-translate-y: 0; --tw-rotate: 0; --tw-skew-x: 0; --tw-skew-y: 0; --tw-scale-x: 1; --tw-scale-y: 1; --tw-pan-x: ; --tw-pan-y: ; --tw-pinch-zoom: ; --tw-scroll-snap-strictness: proximity; --tw-gradient-from-position: ; --tw-gradient-via-position: ; --tw-gradient-to-position: ; --tw-ordinal: ; --tw-slashed-zero: ; --tw-numeric-figure: ; --tw-numeric-spacing: ; --tw-numeric-fraction: ; --tw-ring-inset: ; --tw-ring-offset-width: 0px; --tw-ring-offset-color: #fff; --tw-ring-color: rgb(59 130 246 / .5); --tw-ring-offset-shadow: 0 0 #0000; --tw-ring-shadow: 0 0 #0000; --tw-shadow: 0 0 #0000; --tw-shadow-colored: 0 0 #0000; --tw-blur: ; --tw-brightness: ; --tw-contrast: ; --tw-grayscale: ; --tw-hue-rotate: ; --tw-invert: ; --tw-saturate: ; --tw-sepia: ; --tw-drop-shadow: ; --tw-backdrop-blur: ; --tw-backdrop-brightness: ; --tw-backdrop-contrast: ; --tw-backdrop-grayscale: ; --tw-backdrop-hue-rotate: ; --tw-backdrop-invert: ; --tw-backdrop-opacity: ; --tw-backdrop-saturate: ; --tw-backdrop-sepia: ; --tw-contain-size: ; --tw-contain-layout: ; --tw-contain-paint: ; --tw-contain-style: ; box-sizing: border-box; border-width: 0px; border-style: solid; border-color: var(--chakra-colors-chakra-border-color); overflow-wrap: break-word; font-family: ui-monospace, SFMono-Regular, Menlo, Monaco, Consolas, &amp;quot;Liberation Mono&amp;quot;, &amp;quot;Courier New&amp;quot;, monospace; margin-top: 0px; margin-bottom: 1rem; border-radius: 0.5rem; position: relative; background-color: rgb(255, 255, 255); font-size: 11px;&quot; class=&quot;m-0 mb-4 rounded-lg relative&quot;&gt;&lt;code style=&quot;--tw-border-spacing-x: 0; --tw-border-spacing-y: 0; --tw-translate-x: 0; --tw-translate-y: 0; --tw-rotate: 0; --tw-skew-x: 0; --tw-skew-y: 0; --tw-scale-x: 1; --tw-scale-y: 1; --tw-pan-x: ; --tw-pan-y: ; --tw-pinch-zoom: ; --tw-scroll-snap-strictness: proximity; --tw-gradient-from-position: ; --tw-gradient-via-position: ; --tw-gradient-to-position: ; --tw-ordinal: ; --tw-slashed-zero: ; --tw-numeric-figure: ; --tw-numeric-spacing: ; --tw-numeric-fraction: ; --tw-ring-inset: ; --tw-ring-offset-width: 0px; --tw-ring-offset-color: #fff; --tw-ring-color: rgb(59 130 246 / .5); --tw-ring-offset-shadow: 0 0 #0000; --tw-ring-shadow: 0 0 #0000; --tw-shadow: 0 0 #0000; --tw-shadow-colored: 0 0 #0000; --tw-blur: ; --tw-brightness: ; --tw-contrast: ; --tw-grayscale: ; --tw-hue-rotate: ; --tw-invert: ; --tw-saturate: ; --tw-sepia: ; --tw-drop-shadow: ; --tw-backdrop-blur: ; --tw-backdrop-brightness: ; --tw-backdrop-contrast: ; --tw-backdrop-grayscale: ; --tw-backdrop-hue-rotate: ; --tw-backdrop-invert: ; --tw-backdrop-opacity: ; --tw-backdrop-saturate: ; --tw-backdrop-sepia: ; --tw-contain-size: ; --tw-contain-layout: ; --tw-contain-paint: ; --tw-contain-style: ; box-sizing: border-box; border-width: 0px; border-style: solid; border-color: var(--chakra-colors-chakra-border-color); overflow-wrap: break-word; font-family: ui-monospace, SFMono-Regular, Menlo, Monaco, Consolas, &amp;quot;Liberation Mono&amp;quot;, &amp;quot;Courier New&amp;quot;, monospace; font-size: 1em; text-wrap-mode: wrap;&quot; class=&quot;whitespace-pre-wrap&quot;&gt;Kafka       &lt;/code&gt;Tópico: lançamentos&lt;/pre&gt;" style="ellipse;whiteSpace=wrap;html=1;aspect=fixed;" vertex="1" parent="ezG9GX9ZQJPP13QtV_8G-2">
          <mxGeometry x="930" y="223.75" width="78.55" height="67.5" as="geometry" />
        </mxCell>
        <mxCell id="ezG9GX9ZQJPP13QtV_8G-16" value="" style="endArrow=none;dashed=1;html=1;rounded=0;align=center;verticalAlign=middle;fontStyle=1;exitX=0.147;exitY=0.997;exitDx=0;exitDy=0;exitPerimeter=0;entryX=1;entryY=0.5;entryDx=0;entryDy=0;" edge="1" parent="ezG9GX9ZQJPP13QtV_8G-2" source="ezG9GX9ZQJPP13QtV_8G-27" target="ezG9GX9ZQJPP13QtV_8G-43">
          <mxGeometry width="50" height="50" relative="1" as="geometry">
            <mxPoint x="1810" y="350" as="sourcePoint" />
            <mxPoint x="1500" y="380" as="targetPoint" />
            <Array as="points">
              <mxPoint x="1719" y="361" />
            </Array>
          </mxGeometry>
        </mxCell>
        <mxCell id="ezG9GX9ZQJPP13QtV_8G-17" value="Text" style="edgeLabel;html=1;align=center;verticalAlign=middle;resizable=0;points=[];fontStyle=1" vertex="1" connectable="0" parent="ezG9GX9ZQJPP13QtV_8G-16">
          <mxGeometry relative="1" as="geometry">
            <mxPoint x="50" y="1" as="offset" />
          </mxGeometry>
        </mxCell>
        <mxCell id="ezG9GX9ZQJPP13QtV_8G-18" value="&lt;pre class=&quot;m-0 mb-4 rounded-lg relative&quot; style=&quot;--tw-border-spacing-x: 0; --tw-border-spacing-y: 0; --tw-translate-x: 0; --tw-translate-y: 0; --tw-rotate: 0; --tw-skew-x: 0; --tw-skew-y: 0; --tw-scale-x: 1; --tw-scale-y: 1; --tw-pan-x: ; --tw-pan-y: ; --tw-pinch-zoom: ; --tw-scroll-snap-strictness: proximity; --tw-gradient-from-position: ; --tw-gradient-via-position: ; --tw-gradient-to-position: ; --tw-ordinal: ; --tw-slashed-zero: ; --tw-numeric-figure: ; --tw-numeric-spacing: ; --tw-numeric-fraction: ; --tw-ring-inset: ; --tw-ring-offset-width: 0px; --tw-ring-offset-color: #fff; --tw-ring-color: rgb(59 130 246 / .5); --tw-ring-offset-shadow: 0 0 #0000; --tw-ring-shadow: 0 0 #0000; --tw-shadow: 0 0 #0000; --tw-shadow-colored: 0 0 #0000; --tw-blur: ; --tw-brightness: ; --tw-contrast: ; --tw-grayscale: ; --tw-hue-rotate: ; --tw-invert: ; --tw-saturate: ; --tw-sepia: ; --tw-drop-shadow: ; --tw-backdrop-blur: ; --tw-backdrop-brightness: ; --tw-backdrop-contrast: ; --tw-backdrop-grayscale: ; --tw-backdrop-hue-rotate: ; --tw-backdrop-invert: ; --tw-backdrop-opacity: ; --tw-backdrop-saturate: ; --tw-backdrop-sepia: ; --tw-contain-size: ; --tw-contain-layout: ; --tw-contain-paint: ; --tw-contain-style: ; box-sizing: border-box; border-width: 0px; border-style: solid; border-color: var(--chakra-colors-chakra-border-color); overflow-wrap: break-word; font-family: ui-monospace, SFMono-Regular, Menlo, Monaco, Consolas, &amp;quot;Liberation Mono&amp;quot;, &amp;quot;Courier New&amp;quot;, monospace; font-size: medium; margin-top: 0px; margin-bottom: 1rem; border-radius: 0.5rem; position: relative;&quot;&gt;&lt;code class=&quot;whitespace-pre-wrap&quot; style=&quot;--tw-border-spacing-x: 0; --tw-border-spacing-y: 0; --tw-translate-x: 0; --tw-translate-y: 0; --tw-rotate: 0; --tw-skew-x: 0; --tw-skew-y: 0; --tw-scale-x: 1; --tw-scale-y: 1; --tw-pan-x: ; --tw-pan-y: ; --tw-pinch-zoom: ; --tw-scroll-snap-strictness: proximity; --tw-gradient-from-position: ; --tw-gradient-via-position: ; --tw-gradient-to-position: ; --tw-ordinal: ; --tw-slashed-zero: ; --tw-numeric-figure: ; --tw-numeric-spacing: ; --tw-numeric-fraction: ; --tw-ring-inset: ; --tw-ring-offset-width: 0px; --tw-ring-offset-color: #fff; --tw-ring-color: rgb(59 130 246 / .5); --tw-ring-offset-shadow: 0 0 #0000; --tw-ring-shadow: 0 0 #0000; --tw-shadow: 0 0 #0000; --tw-shadow-colored: 0 0 #0000; --tw-blur: ; --tw-brightness: ; --tw-contrast: ; --tw-grayscale: ; --tw-hue-rotate: ; --tw-invert: ; --tw-saturate: ; --tw-sepia: ; --tw-drop-shadow: ; --tw-backdrop-blur: ; --tw-backdrop-brightness: ; --tw-backdrop-contrast: ; --tw-backdrop-grayscale: ; --tw-backdrop-hue-rotate: ; --tw-backdrop-invert: ; --tw-backdrop-opacity: ; --tw-backdrop-saturate: ; --tw-backdrop-sepia: ; --tw-contain-size: ; --tw-contain-layout: ; --tw-contain-paint: ; --tw-contain-style: ; box-sizing: border-box; border-width: 0px; border-style: solid; border-color: var(--chakra-colors-chakra-border-color); overflow-wrap: break-word; font-family: ui-monospace, SFMono-Regular, Menlo, Monaco, Consolas, &amp;quot;Liberation Mono&amp;quot;, &amp;quot;Courier New&amp;quot;, monospace; font-size: 1em; text-wrap-mode: wrap;&quot;&gt;Evento consumido&lt;/code&gt;&lt;/pre&gt;" style="edgeLabel;html=1;align=center;verticalAlign=middle;resizable=0;points=[];fontStyle=1" vertex="1" connectable="0" parent="ezG9GX9ZQJPP13QtV_8G-16">
          <mxGeometry relative="1" as="geometry">
            <mxPoint x="50" as="offset" />
          </mxGeometry>
        </mxCell>
        <mxCell id="ezG9GX9ZQJPP13QtV_8G-19" value="&lt;pre style=&quot;font-weight: 700; --tw-border-spacing-x: 0; --tw-border-spacing-y: 0; --tw-translate-x: 0; --tw-translate-y: 0; --tw-rotate: 0; --tw-skew-x: 0; --tw-skew-y: 0; --tw-scale-x: 1; --tw-scale-y: 1; --tw-pan-x: ; --tw-pan-y: ; --tw-pinch-zoom: ; --tw-scroll-snap-strictness: proximity; --tw-gradient-from-position: ; --tw-gradient-via-position: ; --tw-gradient-to-position: ; --tw-ordinal: ; --tw-slashed-zero: ; --tw-numeric-figure: ; --tw-numeric-spacing: ; --tw-numeric-fraction: ; --tw-ring-inset: ; --tw-ring-offset-width: 0px; --tw-ring-offset-color: #fff; --tw-ring-color: rgb(59 130 246 / .5); --tw-ring-offset-shadow: 0 0 #0000; --tw-ring-shadow: 0 0 #0000; --tw-shadow: 0 0 #0000; --tw-shadow-colored: 0 0 #0000; --tw-blur: ; --tw-brightness: ; --tw-contrast: ; --tw-grayscale: ; --tw-hue-rotate: ; --tw-invert: ; --tw-saturate: ; --tw-sepia: ; --tw-drop-shadow: ; --tw-backdrop-blur: ; --tw-backdrop-brightness: ; --tw-backdrop-contrast: ; --tw-backdrop-grayscale: ; --tw-backdrop-hue-rotate: ; --tw-backdrop-invert: ; --tw-backdrop-opacity: ; --tw-backdrop-saturate: ; --tw-backdrop-sepia: ; --tw-contain-size: ; --tw-contain-layout: ; --tw-contain-paint: ; --tw-contain-style: ; box-sizing: border-box; border-width: 0px; border-style: solid; border-color: var(--chakra-colors-chakra-border-color); overflow-wrap: break-word; font-family: ui-monospace, SFMono-Regular, Menlo, Monaco, Consolas, &amp;quot;Liberation Mono&amp;quot;, &amp;quot;Courier New&amp;quot;, monospace; font-size: medium; margin-top: 0px; margin-bottom: 1rem; border-radius: 0.5rem; position: relative; background-color: rgb(255, 255, 255);&quot; class=&quot;m-0 mb-4 rounded-lg relative&quot;&gt;&lt;code style=&quot;--tw-border-spacing-x: 0; --tw-border-spacing-y: 0; --tw-translate-x: 0; --tw-translate-y: 0; --tw-rotate: 0; --tw-skew-x: 0; --tw-skew-y: 0; --tw-scale-x: 1; --tw-scale-y: 1; --tw-pan-x: ; --tw-pan-y: ; --tw-pinch-zoom: ; --tw-scroll-snap-strictness: proximity; --tw-gradient-from-position: ; --tw-gradient-via-position: ; --tw-gradient-to-position: ; --tw-ordinal: ; --tw-slashed-zero: ; --tw-numeric-figure: ; --tw-numeric-spacing: ; --tw-numeric-fraction: ; --tw-ring-inset: ; --tw-ring-offset-width: 0px; --tw-ring-offset-color: #fff; --tw-ring-color: rgb(59 130 246 / .5); --tw-ring-offset-shadow: 0 0 #0000; --tw-ring-shadow: 0 0 #0000; --tw-shadow: 0 0 #0000; --tw-shadow-colored: 0 0 #0000; --tw-blur: ; --tw-brightness: ; --tw-contrast: ; --tw-grayscale: ; --tw-hue-rotate: ; --tw-invert: ; --tw-saturate: ; --tw-sepia: ; --tw-drop-shadow: ; --tw-backdrop-blur: ; --tw-backdrop-brightness: ; --tw-backdrop-contrast: ; --tw-backdrop-grayscale: ; --tw-backdrop-hue-rotate: ; --tw-backdrop-invert: ; --tw-backdrop-opacity: ; --tw-backdrop-saturate: ; --tw-backdrop-sepia: ; --tw-contain-size: ; --tw-contain-layout: ; --tw-contain-paint: ; --tw-contain-style: ; box-sizing: border-box; border-width: 0px; border-style: solid; border-color: var(--chakra-colors-chakra-border-color); overflow-wrap: break-word; font-family: ui-monospace, SFMono-Regular, Menlo, Monaco, Consolas, &amp;quot;Liberation Mono&amp;quot;, &amp;quot;Courier New&amp;quot;, monospace; font-size: 1em; text-wrap-mode: wrap;&quot; class=&quot;whitespace-pre-wrap&quot;&gt;Prometheus  &lt;/code&gt;&lt;/pre&gt;" style="shape=cube;whiteSpace=wrap;html=1;boundedLbl=1;backgroundOutline=1;darkOpacity=0.05;darkOpacity2=0.1;" vertex="1" parent="ezG9GX9ZQJPP13QtV_8G-2">
          <mxGeometry x="615" y="550" width="120" height="80" as="geometry" />
        </mxCell>
        <mxCell id="ezG9GX9ZQJPP13QtV_8G-20" value="&lt;pre style=&quot;text-align: center; --tw-border-spacing-x: 0; --tw-border-spacing-y: 0; --tw-translate-x: 0; --tw-translate-y: 0; --tw-rotate: 0; --tw-skew-x: 0; --tw-skew-y: 0; --tw-scale-x: 1; --tw-scale-y: 1; --tw-pan-x: ; --tw-pan-y: ; --tw-pinch-zoom: ; --tw-scroll-snap-strictness: proximity; --tw-gradient-from-position: ; --tw-gradient-via-position: ; --tw-gradient-to-position: ; --tw-ordinal: ; --tw-slashed-zero: ; --tw-numeric-figure: ; --tw-numeric-spacing: ; --tw-numeric-fraction: ; --tw-ring-inset: ; --tw-ring-offset-width: 0px; --tw-ring-offset-color: #fff; --tw-ring-color: rgb(59 130 246 / .5); --tw-ring-offset-shadow: 0 0 #0000; --tw-ring-shadow: 0 0 #0000; --tw-shadow: 0 0 #0000; --tw-shadow-colored: 0 0 #0000; --tw-blur: ; --tw-brightness: ; --tw-contrast: ; --tw-grayscale: ; --tw-hue-rotate: ; --tw-invert: ; --tw-saturate: ; --tw-sepia: ; --tw-drop-shadow: ; --tw-backdrop-blur: ; --tw-backdrop-brightness: ; --tw-backdrop-contrast: ; --tw-backdrop-grayscale: ; --tw-backdrop-hue-rotate: ; --tw-backdrop-invert: ; --tw-backdrop-opacity: ; --tw-backdrop-saturate: ; --tw-backdrop-sepia: ; --tw-contain-size: ; --tw-contain-layout: ; --tw-contain-paint: ; --tw-contain-style: ; box-sizing: border-box; border-width: 0px; border-style: solid; border-color: var(--chakra-colors-chakra-border-color); overflow-wrap: break-word; font-family: ui-monospace, SFMono-Regular, Menlo, Monaco, Consolas, &amp;quot;Liberation Mono&amp;quot;, &amp;quot;Courier New&amp;quot;, monospace; font-size: 10px; margin-top: 0px; margin-bottom: 1rem; border-radius: 0.5rem; position: relative; background-color: rgb(255, 255, 255);&quot; class=&quot;m-0 mb-4 rounded-lg relative&quot;&gt;&lt;code style=&quot;--tw-border-spacing-x: 0; --tw-border-spacing-y: 0; --tw-translate-x: 0; --tw-translate-y: 0; --tw-rotate: 0; --tw-skew-x: 0; --tw-skew-y: 0; --tw-scale-x: 1; --tw-scale-y: 1; --tw-pan-x: ; --tw-pan-y: ; --tw-pinch-zoom: ; --tw-scroll-snap-strictness: proximity; --tw-gradient-from-position: ; --tw-gradient-via-position: ; --tw-gradient-to-position: ; --tw-ordinal: ; --tw-slashed-zero: ; --tw-numeric-figure: ; --tw-numeric-spacing: ; --tw-numeric-fraction: ; --tw-ring-inset: ; --tw-ring-offset-width: 0px; --tw-ring-offset-color: #fff; --tw-ring-color: rgb(59 130 246 / .5); --tw-ring-offset-shadow: 0 0 #0000; --tw-ring-shadow: 0 0 #0000; --tw-shadow: 0 0 #0000; --tw-shadow-colored: 0 0 #0000; --tw-blur: ; --tw-brightness: ; --tw-contrast: ; --tw-grayscale: ; --tw-hue-rotate: ; --tw-invert: ; --tw-saturate: ; --tw-sepia: ; --tw-drop-shadow: ; --tw-backdrop-blur: ; --tw-backdrop-brightness: ; --tw-backdrop-contrast: ; --tw-backdrop-grayscale: ; --tw-backdrop-hue-rotate: ; --tw-backdrop-invert: ; --tw-backdrop-opacity: ; --tw-backdrop-saturate: ; --tw-backdrop-sepia: ; --tw-contain-size: ; --tw-contain-layout: ; --tw-contain-paint: ; --tw-contain-style: ; box-sizing: border-box; border-width: 0px; border-style: solid; border-color: var(--chakra-colors-chakra-border-color); overflow-wrap: break-word; font-family: ui-monospace, SFMono-Regular, Menlo, Monaco, Consolas, &amp;quot;Liberation Mono&amp;quot;, &amp;quot;Courier New&amp;quot;, monospace; font-size: 10px; text-wrap-mode: wrap;&quot; class=&quot;whitespace-pre-wrap&quot;&gt; Grafana       (Visualização)&lt;/code&gt;&lt;/pre&gt;" style="label;whiteSpace=wrap;html=1;image=img/clipart/Gear_128x128.png;fontSize=10;" vertex="1" parent="ezG9GX9ZQJPP13QtV_8G-2">
          <mxGeometry x="840" y="550" width="140" height="90" as="geometry" />
        </mxCell>
        <mxCell id="ezG9GX9ZQJPP13QtV_8G-21" style="edgeStyle=orthogonalEdgeStyle;rounded=0;orthogonalLoop=1;jettySize=auto;html=1;entryX=-0.029;entryY=0.433;entryDx=0;entryDy=0;entryPerimeter=0;" edge="1" parent="ezG9GX9ZQJPP13QtV_8G-2" source="ezG9GX9ZQJPP13QtV_8G-19" target="ezG9GX9ZQJPP13QtV_8G-20">
          <mxGeometry relative="1" as="geometry" />
        </mxCell>
        <mxCell id="ezG9GX9ZQJPP13QtV_8G-22" style="edgeStyle=orthogonalEdgeStyle;rounded=0;orthogonalLoop=1;jettySize=auto;html=1;entryX=0.442;entryY=0.053;entryDx=0;entryDy=0;entryPerimeter=0;" edge="1" parent="ezG9GX9ZQJPP13QtV_8G-2" source="ezG9GX9ZQJPP13QtV_8G-19">
          <mxGeometry relative="1" as="geometry">
            <mxPoint x="674.9200000000001" y="690.0349999999999" as="targetPoint" />
          </mxGeometry>
        </mxCell>
        <mxCell id="ezG9GX9ZQJPP13QtV_8G-23" value="Actor" style="shape=umlActor;verticalLabelPosition=bottom;verticalAlign=top;html=1;outlineConnect=0;" vertex="1" parent="ezG9GX9ZQJPP13QtV_8G-2">
          <mxGeometry x="1039" y="685" width="30" height="60" as="geometry" />
        </mxCell>
        <mxCell id="ezG9GX9ZQJPP13QtV_8G-24" value="Pod indisponível&amp;nbsp;" style="whiteSpace=wrap;html=1;rounded=1;arcSize=50;align=center;verticalAlign=middle;strokeWidth=1;autosize=1;spacing=4;treeFolding=1;treeMoving=1;newEdgeStyle={&quot;edgeStyle&quot;:&quot;entityRelationEdgeStyle&quot;,&quot;startArrow&quot;:&quot;none&quot;,&quot;endArrow&quot;:&quot;none&quot;,&quot;segment&quot;:10,&quot;curved&quot;:1,&quot;sourcePerimeterSpacing&quot;:0,&quot;targetPerimeterSpacing&quot;:0};" vertex="1" parent="ezG9GX9ZQJPP13QtV_8G-2">
          <mxGeometry x="850" y="680" width="140" height="30" as="geometry" />
        </mxCell>
        <mxCell id="ezG9GX9ZQJPP13QtV_8G-25" value="" style="edgeStyle=entityRelationEdgeStyle;startArrow=none;endArrow=none;segment=10;curved=1;sourcePerimeterSpacing=0;targetPerimeterSpacing=0;rounded=0;" edge="1" parent="ezG9GX9ZQJPP13QtV_8G-2" target="ezG9GX9ZQJPP13QtV_8G-24">
          <mxGeometry relative="1" as="geometry">
            <mxPoint x="840" y="722" as="sourcePoint" />
          </mxGeometry>
        </mxCell>
        <mxCell id="ezG9GX9ZQJPP13QtV_8G-26" value="DB" style="shape=cylinder3;whiteSpace=wrap;html=1;boundedLbl=1;backgroundOutline=1;size=15;fillColor=#d5e8d4;strokeColor=#82b366;" vertex="1" parent="ezG9GX9ZQJPP13QtV_8G-2">
          <mxGeometry x="1759" y="490" width="60" height="80" as="geometry" />
        </mxCell>
        <mxCell id="ezG9GX9ZQJPP13QtV_8G-27" value="&lt;div style=&quot;font-size: 12px;&quot;&gt;&lt;pre class=&quot;m-0 mb-4 rounded-lg relative&quot; style=&quot;--tw-border-spacing-x: 0; --tw-border-spacing-y: 0; --tw-translate-x: 0; --tw-translate-y: 0; --tw-rotate: 0; --tw-skew-x: 0; --tw-skew-y: 0; --tw-scale-x: 1; --tw-scale-y: 1; --tw-pan-x: ; --tw-pan-y: ; --tw-pinch-zoom: ; --tw-scroll-snap-strictness: proximity; --tw-gradient-from-position: ; --tw-gradient-via-position: ; --tw-gradient-to-position: ; --tw-ordinal: ; --tw-slashed-zero: ; --tw-numeric-figure: ; --tw-numeric-spacing: ; --tw-numeric-fraction: ; --tw-ring-inset: ; --tw-ring-offset-width: 0px; --tw-ring-offset-color: #fff; --tw-ring-color: rgb(59 130 246 / .5); --tw-ring-offset-shadow: 0 0 #0000; --tw-ring-shadow: 0 0 #0000; --tw-shadow: 0 0 #0000; --tw-shadow-colored: 0 0 #0000; --tw-blur: ; --tw-brightness: ; --tw-contrast: ; --tw-grayscale: ; --tw-hue-rotate: ; --tw-invert: ; --tw-saturate: ; --tw-sepia: ; --tw-drop-shadow: ; --tw-backdrop-blur: ; --tw-backdrop-brightness: ; --tw-backdrop-contrast: ; --tw-backdrop-grayscale: ; --tw-backdrop-hue-rotate: ; --tw-backdrop-invert: ; --tw-backdrop-opacity: ; --tw-backdrop-saturate: ; --tw-backdrop-sepia: ; --tw-contain-size: ; --tw-contain-layout: ; --tw-contain-paint: ; --tw-contain-style: ; box-sizing: border-box; border-width: 0px; border-style: solid; border-color: var(--chakra-colors-chakra-border-color); overflow-wrap: break-word; font-family: ui-monospace, SFMono-Regular, Menlo, Monaco, Consolas, &amp;quot;Liberation Mono&amp;quot;, &amp;quot;Courier New&amp;quot;, monospace; font-size: 12px; margin-top: 0px; margin-bottom: 1rem; border-radius: 0.5rem; position: relative; background-color: rgb(255, 255, 255);&quot;&gt;&lt;div style=&quot;font-size: 12px;&quot;&gt;&lt;span style=&quot;font-size: 12px; white-space: normal;&quot;&gt;Api - Consolidação&lt;/span&gt;&lt;/div&gt;&lt;code class=&quot;whitespace-pre-wrap&quot; style=&quot;--tw-border-spacing-x: 0; --tw-border-spacing-y: 0; --tw-translate-x: 0; --tw-translate-y: 0; --tw-rotate: 0; --tw-skew-x: 0; --tw-skew-y: 0; --tw-scale-x: 1; --tw-scale-y: 1; --tw-pan-x: ; --tw-pan-y: ; --tw-pinch-zoom: ; --tw-scroll-snap-strictness: proximity; --tw-gradient-from-position: ; --tw-gradient-via-position: ; --tw-gradient-to-position: ; --tw-ordinal: ; --tw-slashed-zero: ; --tw-numeric-figure: ; --tw-numeric-spacing: ; --tw-numeric-fraction: ; --tw-ring-inset: ; --tw-ring-offset-width: 0px; --tw-ring-offset-color: #fff; --tw-ring-color: rgb(59 130 246 / .5); --tw-ring-offset-shadow: 0 0 #0000; --tw-ring-shadow: 0 0 #0000; --tw-shadow: 0 0 #0000; --tw-shadow-colored: 0 0 #0000; --tw-blur: ; --tw-brightness: ; --tw-contrast: ; --tw-grayscale: ; --tw-hue-rotate: ; --tw-invert: ; --tw-saturate: ; --tw-sepia: ; --tw-drop-shadow: ; --tw-backdrop-blur: ; --tw-backdrop-brightness: ; --tw-backdrop-contrast: ; --tw-backdrop-grayscale: ; --tw-backdrop-hue-rotate: ; --tw-backdrop-invert: ; --tw-backdrop-opacity: ; --tw-backdrop-saturate: ; --tw-backdrop-sepia: ; --tw-contain-size: ; --tw-contain-layout: ; --tw-contain-paint: ; --tw-contain-style: ; box-sizing: border-box; border-width: 0px; border-style: solid; border-color: var(--chakra-colors-chakra-border-color); overflow-wrap: break-word; font-family: ui-monospace, SFMono-Regular, Menlo, Monaco, Consolas, &amp;quot;Liberation Mono&amp;quot;, &amp;quot;Courier New&amp;quot;, monospace; font-size: 12px; text-wrap-mode: wrap;&quot;&gt;&lt;div style=&quot;font-size: 12px;&quot;&gt;&lt;br style=&quot;font-size: 12px;&quot;&gt;&lt;/div&gt;&lt;div style=&quot;font-size: 12px;&quot;&gt;&lt;span style=&quot;font-size: 12px; white-space-collapse: collapse;&quot;&gt;(Consumer)&amp;nbsp;&lt;/span&gt;&lt;/div&gt;&lt;div style=&quot;font-size: 12px;&quot;&gt;&lt;span style=&quot;font-size: 12px; white-space-collapse: collapse;&quot;&gt;&amp;nbsp;(Consome eventos)&lt;/span&gt;&lt;/div&gt;&lt;/code&gt;&lt;/pre&gt;&lt;/div&gt;" style="rounded=0;whiteSpace=wrap;html=1;align=center;verticalAlign=middle;fontStyle=1;fontSize=12;" vertex="1" parent="ezG9GX9ZQJPP13QtV_8G-2">
          <mxGeometry x="1690" y="210" width="198" height="100" as="geometry" />
        </mxCell>
        <mxCell id="ezG9GX9ZQJPP13QtV_8G-28" style="edgeStyle=orthogonalEdgeStyle;rounded=0;orthogonalLoop=1;jettySize=auto;html=1;entryX=0.021;entryY=0.426;entryDx=0;entryDy=0;entryPerimeter=0;" edge="1" parent="ezG9GX9ZQJPP13QtV_8G-2" source="ezG9GX9ZQJPP13QtV_8G-5" target="ezG9GX9ZQJPP13QtV_8G-13">
          <mxGeometry relative="1" as="geometry" />
        </mxCell>
        <mxCell id="ezG9GX9ZQJPP13QtV_8G-29" style="edgeStyle=orthogonalEdgeStyle;rounded=0;orthogonalLoop=1;jettySize=auto;html=1;" edge="1" parent="ezG9GX9ZQJPP13QtV_8G-2" source="ezG9GX9ZQJPP13QtV_8G-30">
          <mxGeometry relative="1" as="geometry">
            <mxPoint x="190" y="450" as="targetPoint" />
          </mxGeometry>
        </mxCell>
        <mxCell id="ezG9GX9ZQJPP13QtV_8G-30" value="Requisição&amp;nbsp;" style="shape=note;size=20;whiteSpace=wrap;html=1;" vertex="1" parent="ezG9GX9ZQJPP13QtV_8G-2">
          <mxGeometry x="160" y="510" width="60" height="80" as="geometry" />
        </mxCell>
        <mxCell id="ezG9GX9ZQJPP13QtV_8G-31" value="" style="endArrow=classic;startArrow=classic;html=1;rounded=0;dashed=1;entryX=0.456;entryY=-0.017;entryDx=0;entryDy=0;entryPerimeter=0;" edge="1" parent="ezG9GX9ZQJPP13QtV_8G-2" target="ezG9GX9ZQJPP13QtV_8G-27">
          <mxGeometry width="50" height="50" relative="1" as="geometry">
            <mxPoint x="460" y="160" as="sourcePoint" />
            <mxPoint x="1400" y="200" as="targetPoint" />
            <Array as="points">
              <mxPoint x="620" y="50" />
              <mxPoint x="1190" y="50" />
              <mxPoint x="1780" y="50" />
              <mxPoint x="1780" y="120" />
            </Array>
          </mxGeometry>
        </mxCell>
        <mxCell id="ezG9GX9ZQJPP13QtV_8G-32" value="Relatórios e notificações" style="edgeLabel;html=1;align=center;verticalAlign=middle;resizable=0;points=[];" vertex="1" connectable="0" parent="ezG9GX9ZQJPP13QtV_8G-31">
          <mxGeometry x="-0.0703" relative="1" as="geometry">
            <mxPoint y="1" as="offset" />
          </mxGeometry>
        </mxCell>
        <mxCell id="ezG9GX9ZQJPP13QtV_8G-33" value="DB" style="shape=cylinder3;whiteSpace=wrap;html=1;boundedLbl=1;backgroundOutline=1;size=15;fillColor=#d5e8d4;strokeColor=#82b366;" vertex="1" parent="ezG9GX9ZQJPP13QtV_8G-2">
          <mxGeometry x="929" y="80" width="78" height="80" as="geometry" />
        </mxCell>
        <mxCell id="ezG9GX9ZQJPP13QtV_8G-34" value="&amp;nbsp; &amp;nbsp; &amp;nbsp; &amp;nbsp;Fila de Erros&amp;nbsp; &amp;nbsp; &amp;nbsp; &amp;nbsp; &amp;nbsp;" style="strokeWidth=2;html=1;shape=mxgraph.flowchart.multi-document;whiteSpace=wrap;align=left;fillColor=#f8cecc;strokeColor=#b85450;" vertex="1" parent="ezG9GX9ZQJPP13QtV_8G-2">
          <mxGeometry x="910" y="330" width="115" height="60" as="geometry" />
        </mxCell>
        <mxCell id="ezG9GX9ZQJPP13QtV_8G-35" value="" style="shape=message;html=1;html=1;outlineConnect=0;labelPosition=center;verticalLabelPosition=bottom;align=center;verticalAlign=top;" vertex="1" parent="ezG9GX9ZQJPP13QtV_8G-2">
          <mxGeometry x="820" y="260" width="30" height="20" as="geometry" />
        </mxCell>
        <mxCell id="ezG9GX9ZQJPP13QtV_8G-36" style="edgeStyle=orthogonalEdgeStyle;rounded=0;orthogonalLoop=1;jettySize=auto;html=1;entryX=0.508;entryY=0.15;entryDx=0;entryDy=0;entryPerimeter=0;" edge="1" parent="ezG9GX9ZQJPP13QtV_8G-2" source="ezG9GX9ZQJPP13QtV_8G-15" target="ezG9GX9ZQJPP13QtV_8G-34">
          <mxGeometry relative="1" as="geometry" />
        </mxCell>
        <mxCell id="ezG9GX9ZQJPP13QtV_8G-37" style="edgeStyle=orthogonalEdgeStyle;rounded=0;orthogonalLoop=1;jettySize=auto;html=1;entryX=0;entryY=0.5;entryDx=0;entryDy=0;" edge="1" parent="ezG9GX9ZQJPP13QtV_8G-2" source="ezG9GX9ZQJPP13QtV_8G-38" target="ezG9GX9ZQJPP13QtV_8G-42">
          <mxGeometry relative="1" as="geometry" />
        </mxCell>
        <mxCell id="ezG9GX9ZQJPP13QtV_8G-38" value="&amp;nbsp;Mecanismo de Retry &amp;nbsp;" style="strokeWidth=2;html=1;shape=mxgraph.flowchart.sequential_data;whiteSpace=wrap;fillColor=#dae8fc;strokeColor=#6c8ebf;" vertex="1" parent="ezG9GX9ZQJPP13QtV_8G-2">
          <mxGeometry x="1100" y="322.5" width="100" height="75" as="geometry" />
        </mxCell>
        <mxCell id="ezG9GX9ZQJPP13QtV_8G-39" style="edgeStyle=orthogonalEdgeStyle;rounded=0;orthogonalLoop=1;jettySize=auto;html=1;entryX=0;entryY=0.5;entryDx=0;entryDy=0;entryPerimeter=0;" edge="1" parent="ezG9GX9ZQJPP13QtV_8G-2" source="ezG9GX9ZQJPP13QtV_8G-34" target="ezG9GX9ZQJPP13QtV_8G-38">
          <mxGeometry relative="1" as="geometry" />
        </mxCell>
        <mxCell id="ezG9GX9ZQJPP13QtV_8G-40" style="edgeStyle=orthogonalEdgeStyle;rounded=0;orthogonalLoop=1;jettySize=auto;html=1;" edge="1" parent="ezG9GX9ZQJPP13QtV_8G-2" source="ezG9GX9ZQJPP13QtV_8G-42">
          <mxGeometry relative="1" as="geometry">
            <mxPoint x="1460" y="358.75" as="targetPoint" />
          </mxGeometry>
        </mxCell>
        <mxCell id="ezG9GX9ZQJPP13QtV_8G-41" value="SIM" style="edgeLabel;html=1;align=center;verticalAlign=middle;resizable=0;points=[];" vertex="1" connectable="0" parent="ezG9GX9ZQJPP13QtV_8G-40">
          <mxGeometry x="-0.1635" relative="1" as="geometry">
            <mxPoint as="offset" />
          </mxGeometry>
        </mxCell>
        <mxCell id="ezG9GX9ZQJPP13QtV_8G-42" value="Mensagem processada?" style="rhombus;whiteSpace=wrap;html=1;" vertex="1" parent="ezG9GX9ZQJPP13QtV_8G-2">
          <mxGeometry x="1270" y="320" width="90" height="77.5" as="geometry" />
        </mxCell>
        <mxCell id="ezG9GX9ZQJPP13QtV_8G-43" value="Mensagem OK&lt;br&gt;Tópico publicado" style="whiteSpace=wrap;html=1;" vertex="1" parent="ezG9GX9ZQJPP13QtV_8G-2">
          <mxGeometry x="1470" y="331.25" width="120" height="60" as="geometry" />
        </mxCell>
        <mxCell id="ezG9GX9ZQJPP13QtV_8G-44" style="edgeStyle=orthogonalEdgeStyle;rounded=0;orthogonalLoop=1;jettySize=auto;html=1;entryX=0;entryY=0.5;entryDx=0;entryDy=0;entryPerimeter=0;" edge="1" parent="ezG9GX9ZQJPP13QtV_8G-2" source="ezG9GX9ZQJPP13QtV_8G-13" target="ezG9GX9ZQJPP13QtV_8G-33">
          <mxGeometry relative="1" as="geometry" />
        </mxCell>
        <mxCell id="ezG9GX9ZQJPP13QtV_8G-45" style="edgeStyle=orthogonalEdgeStyle;rounded=0;orthogonalLoop=1;jettySize=auto;html=1;" edge="1" parent="ezG9GX9ZQJPP13QtV_8G-2" source="ezG9GX9ZQJPP13QtV_8G-27" target="ezG9GX9ZQJPP13QtV_8G-26">
          <mxGeometry relative="1" as="geometry" />
        </mxCell>
        <mxCell id="ezG9GX9ZQJPP13QtV_8G-46" style="edgeStyle=orthogonalEdgeStyle;rounded=0;orthogonalLoop=1;jettySize=auto;html=1;entryX=0.592;entryY=-0.012;entryDx=0;entryDy=0;entryPerimeter=0;" edge="1" parent="ezG9GX9ZQJPP13QtV_8G-2" source="ezG9GX9ZQJPP13QtV_8G-42" target="ezG9GX9ZQJPP13QtV_8G-19">
          <mxGeometry relative="1" as="geometry">
            <Array as="points">
              <mxPoint x="1315" y="500" />
              <mxPoint x="686" y="500" />
            </Array>
          </mxGeometry>
        </mxCell>
        <mxCell id="ezG9GX9ZQJPP13QtV_8G-47" value="NÃO" style="edgeLabel;html=1;align=center;verticalAlign=middle;resizable=0;points=[];" vertex="1" connectable="0" parent="ezG9GX9ZQJPP13QtV_8G-46">
          <mxGeometry x="-0.8988" relative="1" as="geometry">
            <mxPoint y="1" as="offset" />
          </mxGeometry>
        </mxCell>
      </root>
    </mxGraphModel>
  </diagram>
</mxfile>
